<svg xmlns="http://www.w3.org/2000/svg" viewBox="0 0 24 24" fill="currentColor">
  <path d="M12 .5C5.37.5 0 5.87 0 12.5c0 5.29 3.44 9.77 8.21 11.36.6.11.82-.26.82-.58v-2.02c-3.34.73-4.04-1.61-4.04-1.61-.55-1.39-1.35-1.76-1.35-1.76-1.1-.75.09-.74.09-.74 1.22.09 1.86 1.25 1.86 1.25 1.08 1.85 2.83 1.32 3.52 1.01.11-.78.42-1.32.76-1.62-2.67-.3-5.48-1.34-5.48-5.95 0-1.31.47-2.38 1.24-3.22-.13-.3-.54-1.51.12-3.15 0 0 1.01-.32 3.3 1.23.96-.27 1.98-.4 3-.4s2.04.13 3 .4c2.29-1.55 3.3-1.23 3.3-1.23.66 1.64.25 2.85.12 3.15.77.84 1.24 1.91 1.24 3.22 0 4.62-2.82 5.64-5.5 5.94.43.37.82 1.1.82 2.22v3.3c0 .32.21.69.82.58C20.56 22.27 24 17.79 24 12.5 24 5.87 18.63.5 12 .5z"/>
</svg>
